<svg width="1424" height="662" viewBox="0 0 1424 662" fill="none" xmlns="http://www.w3.org/2000/svg">
<g filter="url(#filter0_d)">
<g clip-path="url(#clip0)">
<rect x="-16" y="-362" width="1440" height="1024" rx="20" fill="#1E1E1E"/>
<path d="M1397.77 421.525C1247.79 804.592 815.671 993.546 432.604 843.565" stroke="#86FAF3" stroke-width="5" stroke-linecap="round"/>
<path d="M987.835 351.266C1099.11 194.513 1062.24 -22.7651 905.488 -134.039C748.736 -245.313 531.457 -208.445 420.183 -51.692" stroke="#86FAF3" stroke-width="5" stroke-linecap="round"/>
<path d="M87.3561 332.044C-13.1564 -8.38327 181.333 -365.836 521.76 -466.348" stroke="#86FAF3" stroke-width="5" stroke-linecap="round"/>
<path d="M506.22 -326.605C242.984 -217.318 118.184 84.6728 227.471 347.909C336.759 611.145 638.75 735.945 901.986 626.658" stroke="#86FAF3" stroke-width="5" stroke-linecap="round"/>
<path d="M848.891 83.9123C839.591 63.2972 826.014 44.8955 809.06 29.9282C792.105 14.9608 772.162 3.77003 750.553 -2.90164C728.944 -9.57332 706.163 -11.5733 683.722 -8.76899" stroke="#86FAF3" stroke-width="5" stroke-linecap="round"/>
<circle cx="704" cy="150" r="21" stroke="#86FAF3" stroke-width="5" stroke-linecap="round"/>
<path d="M1288.57 487.5C1102.17 810.347 689.348 920.963 366.5 734.567C43.6525 548.171 -66.9633 135.347 119.433 -187.5" stroke="#86FAF3" stroke-width="5" stroke-linecap="round"/>
<path d="M1298 150C1298 478.057 1032.06 744 704 744C375.943 744 110 478.057 110 150" stroke="#86FAF3" stroke-width="5" stroke-linecap="round"/>
<path d="M1395.09 549C1615.45 167.322 1484.68 -320.727 1103 -541.088C721.322 -761.45 233.273 -630.678 12.9117 -249" stroke="#86FAF3" stroke-width="5" stroke-linecap="round"/>
<path d="M1395 150C1395 -231.629 1085.63 -541 704 -541" stroke="#86A0FA" stroke-width="5" stroke-linecap="round"/>
<path d="M1423 150C1423 547.093 1101.09 869 704 869C306.907 869 -15 547.093 -15 150" stroke="#86FAF3" stroke-width="5" stroke-linecap="round"/>
<path d="M1099.34 -83.2068C970.546 -301.548 689.135 -374.139 470.793 -245.342C252.452 -116.546 179.861 164.865 308.658 383.207" stroke="#86FAF3" stroke-width="5" stroke-linecap="round"/>
<path d="M1035.82 712.511C725.151 895.769 324.746 792.484 141.489 481.817C-41.769 171.151 61.5162 -229.254 372.183 -412.511" stroke="#7B8085" stroke-opacity="0.5" stroke-width="5" stroke-linecap="round"/>
<path d="M1347.24 584.626C1107.2 939.877 624.625 1033.28 269.374 793.238C-85.8769 553.201 -179.276 70.6247 60.7615 -284.626" stroke="#86A0FA" stroke-width="5" stroke-linecap="round"/>
<path d="M1155.34 -116.168C1302.44 133.191 1219.53 454.578 970.174 601.671" stroke="#86A0FA" stroke-width="7.07495" stroke-linecap="round"/>
<circle cx="704" cy="150" r="841" stroke="#86FAF3" stroke-width="5" stroke-linecap="round"/>
<path d="M1423 150C1423 -247.093 1101.09 -569 704 -569C306.907 -569 -15 -247.093 -15 150" stroke="#86A0FA" stroke-width="5" stroke-linecap="round"/>
<path d="M704 716C391.407 716 138 462.593 138 150C138 -162.593 391.407 -416 704 -416" stroke="#7B8085" stroke-opacity="0.5" stroke-width="5" stroke-linecap="round"/>
<path d="M704 1009C229.587 1009 -155 624.413 -155 150C-155 -324.413 229.587 -709 704 -709" stroke="#86A0FA" stroke-width="5" stroke-linecap="round"/>
<path d="M853.08 -406.373C1160.36 -324.039 1342.71 -8.19667 1260.37 299.08C1178.04 606.356 862.197 788.708 554.92 706.373" stroke="#7B8085" stroke-opacity="0.5" stroke-width="5" stroke-linecap="round"/>
<path d="M853.08 -406.373C1160.36 -324.039 1342.71 -8.19667 1260.37 299.08C1178.04 606.356 862.197 788.708 554.92 706.373" stroke="#7B8085" stroke-opacity="0.5" stroke-width="5" stroke-linecap="round"/>
<path d="M1471 150C1471 -273.602 1127.6 -617 704 -617C280.398 -617 -63 -273.602 -63 150" stroke="#7B8085" stroke-opacity="0.5" stroke-width="5" stroke-linecap="round"/>
<path d="M1471 150C1471 -273.602 1127.6 -617 704 -617C280.398 -617 -63 -273.602 -63 150" stroke="#7B8085" stroke-opacity="0.5" stroke-width="5" stroke-linecap="round"/>
<path d="M214.014 -78.6897C339.978 -349.051 661.263 -466.108 931.625 -340.144C1201.99 -214.179 1319.04 107.106 1193.08 377.468" stroke="#86FAF3" stroke-width="5" stroke-linecap="round"/>
<path d="M949.053 682.97C654.477 818.398 305.889 689.383 170.461 394.807" stroke="#7B8085" stroke-opacity="0.5" stroke-width="5" stroke-linecap="round"/>
<path d="M155.32 -388.557C452.956 -691.782 940.051 -696.313 1243.28 -398.677" stroke="#7B8085" stroke-opacity="0.5" stroke-width="5" stroke-linecap="round"/>
<path d="M618.374 -35.6604C720.892 -82.7922 842.208 -37.8926 889.339 64.6257" stroke="#7B8085" stroke-opacity="0.5" stroke-width="5" stroke-linecap="round"/>
<path d="M728.731 203.364C758.002 189.908 770.821 155.27 757.365 125.999" stroke="#7B8085" stroke-opacity="0.5" stroke-width="5" stroke-linecap="round"/>
<path d="M703.563 265C639.774 265.035 588.035 213.352 588 149.563" stroke="#86A0FA" stroke-width="5" stroke-linecap="round"/>
<path d="M693.998 184.176C674.96 179.075 663.663 159.507 668.764 140.47C673.865 121.433 693.433 110.135 712.47 115.236" stroke="#86A0FA" stroke-width="5" stroke-linecap="round"/>
<path d="M303.644 -32.7278C404.677 -253.782 665.779 -351.079 886.833 -250.047C1107.89 -149.015 1205.18 112.088 1104.15 333.142" stroke="#86A0FA" stroke-width="5" stroke-linecap="round"/>
<path d="M532.299 -444.463C860.613 -539.083 1203.47 -349.637 1298.09 -21.3235C1392.71 306.99 1203.26 649.847 874.951 744.467" stroke="#86A0FA" stroke-width="5" stroke-linecap="round"/>
<path d="M703.973 840.56C1085.52 840.624 1394.88 531.37 1394.94 149.823" stroke="#86A0FA" stroke-width="5" stroke-linecap="round"/>
<path d="M703.731 633.133C436.918 633.088 220.66 416.757 220.705 149.945C220.75 -116.868 437.08 -333.126 703.893 -333.081" stroke="#86A0FA" stroke-width="5" stroke-linecap="round"/>
<path d="M1075.89 -588.589C1478.25 -385.789 1637.77 109.255 1432.19 517.124C1226.62 924.992 733.788 1091.23 331.432 888.433" stroke="#354389" stroke-width="5" stroke-linecap="round"/>
<path d="M1239 24.6879C1170.44 -266.785 875.349 -446.735 579.884 -377.243" stroke="#354389" stroke-width="5" stroke-linecap="round"/>
<path d="M873 150C873 115.068 862.175 80.9935 842.015 52.4657C821.854 23.938 793.349 2.35848 760.421 -9.30375C727.493 -20.966 691.76 -22.1379 658.138 -12.6581C624.516 -3.17844 594.659 16.487 572.672 43.6325" stroke="#86A0FA" stroke-width="5" stroke-linecap="round"/>
</g>
</g>
<defs>
<filter id="filter0_d" x="-91" y="-362" width="1515" height="1099" filterUnits="userSpaceOnUse" color-interpolation-filters="sRGB">
<feFlood flood-opacity="0" result="BackgroundImageFix"/>
<feColorMatrix in="SourceAlpha" type="matrix" values="0 0 0 0 0 0 0 0 0 0 0 0 0 0 0 0 0 0 127 0" result="hardAlpha"/>
<feOffset dx="-50" dy="50"/>
<feGaussianBlur stdDeviation="12.5"/>
<feColorMatrix type="matrix" values="0 0 0 0 0 0 0 0 0 0 0 0 0 0 0 0 0 0 0.15 0"/>
<feBlend mode="normal" in2="BackgroundImageFix" result="effect1_dropShadow"/>
<feBlend mode="normal" in="SourceGraphic" in2="effect1_dropShadow" result="shape"/>
</filter>
<clipPath id="clip0">
<rect x="-16" y="-362" width="1440" height="1024" rx="20" fill="white"/>
</clipPath>
</defs>
</svg>
