<svg width="1440" height="1032" viewBox="0 0 1440 1032" fill="none" xmlns="http://www.w3.org/2000/svg">
<path d="M1444.51 103.173C798.618 345.705 -105.636 862.464 1444.51 989.248V103.173Z" fill="white"/>
<path d="M1623.52 165.41C977.629 407.942 73.3745 801.511 1623.52 928.295V165.41Z" fill="#161616"/>
<path d="M1794.2 212.89C1148.3 425.029 244.044 769.277 1794.2 880.173V212.89Z" fill="white"/>
<path d="M1658.17 320.682C1244.68 474.891 665.797 725.133 1658.17 805.746V320.682Z" fill="#161616"/>
<circle r="2.56647" transform="matrix(-1 0 0 1 831.768 717.202)" fill="white"/>
<circle r="2.56647" transform="matrix(-1 0 0 1 1395.11 653.04)" fill="white"/>
<circle r="2.56647" transform="matrix(-1 0 0 1 589.237 141.029)" fill="white"/>
<circle r="2.56647" transform="matrix(-1 0 0 1 269.71 818.578)" fill="white"/>
<circle r="2.56647" transform="matrix(-1 0 0 1 1069.17 963.584)" fill="white"/>
<circle r="2.56647" transform="matrix(-1 0 0 1 849.734 261.653)" fill="white"/>
<circle r="2.56647" transform="matrix(-1 0 0 1 332.468 476.566)" fill="white"/>
<circle r="2.56647" transform="matrix(-1 0 0 1 739.375 402.809)" fill="white"/>
<circle cx="755.416" cy="765.324" r="1.92485" fill="#161616"/>
<circle cx="1382.92" cy="148.087" r="1.92485" fill="#161616"/>
<circle cx="1015.91" cy="855.15" r="1.92485" fill="#161616"/>
<circle cx="1087.77" cy="187.867" r="22.4566" fill="white"/>
<circle cx="887.244" cy="519.88" r="32.7225" transform="rotate(18.3001 887.244 519.88)" fill="white"/>
<path d="M897.519 488.813C880.361 483.138 862.019 491.94 856.176 509.605C853.239 518.488 853.33 524.959 857.044 533.545C858.455 529.281 908.287 495.077 908.287 495.077C908.287 495.077 906.656 491.835 897.519 488.813Z" fill="#161616"/>
<circle cx="757.982" cy="843.601" r="4.49133" fill="#161616"/>
<circle cx="1008.21" cy="653.682" r="3.20809" fill="#161616"/>
<circle cx="1159.63" cy="320.04" r="4.49133" fill="#161616"/>
<rect x="1035.8" y="454.467" width="1.94117" height="1.94117" rx="0.265094" transform="rotate(-24.4476 1035.8 454.467)" fill="white"/>
<rect x="652.115" y="842.004" width="3.89396" height="3.89396" rx="0.531777" transform="rotate(-24.4476 652.115 842.004)" fill="white"/>
<rect x="172.185" y="214.502" width="3.89396" height="3.89396" rx="0.531777" transform="rotate(-24.4476 172.185 214.502)" fill="white"/>
<rect x="792.969" y="512.567" width="3.37824" height="3.37824" rx="0.481997" transform="rotate(35.3063 792.969 512.567)" fill="#161616"/>
<rect x="888.896" y="810.789" width="4.02097" height="4.02097" rx="0.619105" transform="rotate(30.4542 888.896 810.789)" fill="#161616"/>
<rect x="1305.28" y="952.415" width="4.02097" height="4.02097" rx="0.619105" transform="rotate(-24.4476 1305.28 952.415)" fill="#161616"/>
<rect x="1343.78" y="396.774" width="4.02097" height="4.02097" rx="0.619105" transform="rotate(-24.4476 1343.78 396.774)" fill="#161616"/>
<path d="M1381.73 89.1227C1382.11 88.9516 1382.53 89.2552 1382.49 89.6693L1382.2 92.5431C1382.16 92.9572 1381.69 93.171 1381.35 92.9281L1379.01 91.2419C1378.67 90.999 1378.72 90.4815 1379.1 90.3104L1381.73 89.1227Z" fill="white"/>
<path d="M1312.44 490.776C1312.82 490.605 1313.24 490.908 1313.2 491.322L1312.91 494.196C1312.87 494.61 1312.39 494.824 1312.06 494.581L1309.71 492.895C1309.37 492.652 1309.42 492.135 1309.8 491.963L1312.44 490.776Z" fill="white"/>
<path d="M853.557 625.618C853.687 625.861 853.646 626.159 853.455 626.358L851.402 628.496C851.212 628.695 850.915 628.748 850.667 628.628L847.999 627.336C847.752 627.216 847.609 626.951 847.647 626.678L848.051 623.742C848.088 623.469 848.297 623.252 848.568 623.203L851.485 622.68C851.756 622.631 852.028 622.762 852.157 623.005L853.557 625.618Z" fill="white"/>
<path d="M1248.49 145.528C1248.76 145.527 1249.01 145.703 1249.09 145.964L1250.02 148.779C1250.11 149.04 1250.02 149.327 1249.8 149.49L1247.41 151.244C1247.19 151.407 1246.88 151.408 1246.66 151.248L1244.25 149.517C1244.03 149.356 1243.94 149.07 1244.02 148.808L1244.92 145.984C1245.01 145.722 1245.25 145.544 1245.52 145.543L1248.49 145.528Z" fill="white"/>
<path d="M1157.01 612.674C1157.1 612.777 1157.12 612.926 1157.04 613.043L1156.28 614.3C1156.21 614.416 1156.07 614.474 1155.94 614.443L1154.51 614.106C1154.38 614.075 1154.28 613.961 1154.27 613.825L1154.15 612.36C1154.13 612.224 1154.21 612.096 1154.34 612.043L1155.69 611.475C1155.82 611.422 1155.97 611.456 1156.05 611.56L1157.01 612.674Z" fill="white"/>
<path d="M1011.09 286.684C1011.36 286.683 1011.61 286.859 1011.7 287.12L1012.63 289.935C1012.71 290.196 1012.62 290.483 1012.4 290.646L1010.01 292.4C1009.79 292.563 1009.49 292.564 1009.26 292.404L1006.86 290.673C1006.63 290.512 1006.54 290.226 1006.62 289.964L1007.52 287.14C1007.61 286.878 1007.85 286.7 1008.13 286.699L1011.09 286.684Z" fill="white"/>
<path d="M1218.22 716.542C1218.32 716.71 1218.31 716.927 1218.19 717.081L1216.83 718.74C1216.71 718.894 1216.49 718.949 1216.31 718.877L1214.31 718.101C1214.13 718.028 1214.01 717.845 1214.02 717.647L1214.14 715.508C1214.15 715.31 1214.29 715.141 1214.48 715.09L1216.56 714.545C1216.75 714.495 1216.95 714.574 1217.06 714.741L1218.22 716.542Z" fill="white"/>
<path d="M1239.51 846.175C1239.78 846.174 1240.03 846.35 1240.11 846.611L1241.04 849.426C1241.13 849.687 1241.04 849.974 1240.81 850.137L1238.42 851.891C1238.2 852.054 1237.9 852.055 1237.68 851.895L1235.27 850.164C1235.05 850.004 1234.95 849.717 1235.04 849.455L1235.94 846.632C1236.02 846.37 1236.27 846.191 1236.54 846.19L1239.51 846.175Z" fill="white"/>
<path d="M937.945 977.065C938.22 977.064 938.465 977.24 938.551 977.501L939.481 980.316C939.567 980.577 939.475 980.864 939.254 981.027L936.864 982.781C936.642 982.944 936.341 982.946 936.117 982.785L933.711 981.054C933.487 980.894 933.393 980.608 933.477 980.345L934.379 977.522C934.463 977.26 934.705 977.081 934.981 977.08L937.945 977.065Z" fill="white"/>
<path d="M633.119 616.942C633.334 616.94 633.524 617.078 633.592 617.281L634.317 619.476C634.384 619.68 634.313 619.904 634.14 620.031L632.276 621.399C632.103 621.526 631.868 621.527 631.694 621.402L629.817 620.052C629.643 619.927 629.569 619.704 629.634 619.499L630.338 617.297C630.403 617.093 630.593 616.954 630.807 616.953L633.119 616.942Z" fill="#161616"/>
<path d="M662.299 721.707C662.566 721.586 662.864 721.8 662.835 722.092L662.473 725.7C662.444 725.992 662.11 726.143 661.872 725.972L658.928 723.854C658.69 723.683 658.726 723.319 658.993 723.198L662.299 721.707Z" fill="#161616"/>
<rect y="510" width="1440" height="522" fill="url(#paint0_linear)"/>
<g opacity="0.6" clip-path="url(#clip0)">
<g filter="url(#filter0_f)">
<ellipse cx="996.978" cy="-43.2551" rx="661.46" ry="155.843" transform="rotate(166.483 996.978 -43.2551)" fill="#0057FF"/>
</g>
<g filter="url(#filter1_f)">
<ellipse cx="909.719" cy="-228.943" rx="760.779" ry="258.856" transform="rotate(170.334 909.719 -228.943)" fill="#00FFFF"/>
</g>
<g filter="url(#filter2_f)">
<ellipse cx="264.5" cy="-127.5" rx="491.5" ry="346.5" transform="rotate(180 264.5 -127.5)" fill="#EC3039"/>
</g>
<g filter="url(#filter3_f)">
<ellipse cx="368.232" cy="-402.366" rx="539.252" ry="329.864" transform="rotate(-151.462 368.232 -402.366)" fill="#00ED97"/>
</g>
<g filter="url(#filter4_f)">
<ellipse cx="25.2048" cy="-177.747" rx="340.036" ry="264.542" transform="rotate(-165.174 25.2048 -177.747)" fill="#FFA467"/>
</g>
</g>
<defs>
<filter id="filter0_f" x="52.792" y="-559.736" width="1888.37" height="1032.96" filterUnits="userSpaceOnUse" color-interpolation-filters="sRGB">
<feFlood flood-opacity="0" result="BackgroundImageFix"/>
<feBlend mode="normal" in="SourceGraphic" in2="BackgroundImageFix" result="shape"/>
<feGaussianBlur stdDeviation="150" result="effect1_foregroundBlur"/>
</filter>
<filter id="filter1_f" x="-141.541" y="-814.372" width="2102.52" height="1170.86" filterUnits="userSpaceOnUse" color-interpolation-filters="sRGB">
<feFlood flood-opacity="0" result="BackgroundImageFix"/>
<feBlend mode="normal" in="SourceGraphic" in2="BackgroundImageFix" result="shape"/>
<feGaussianBlur stdDeviation="150" result="effect1_foregroundBlur"/>
</filter>
<filter id="filter2_f" x="-527" y="-774" width="1583" height="1293" filterUnits="userSpaceOnUse" color-interpolation-filters="sRGB">
<feFlood flood-opacity="0" result="BackgroundImageFix"/>
<feBlend mode="normal" in="SourceGraphic" in2="BackgroundImageFix" result="shape"/>
<feGaussianBlur stdDeviation="150" result="effect1_foregroundBlur"/>
</filter>
<filter id="filter3_f" x="-331.162" y="-990.113" width="1398.79" height="1175.49" filterUnits="userSpaceOnUse" color-interpolation-filters="sRGB">
<feFlood flood-opacity="0" result="BackgroundImageFix"/>
<feBlend mode="normal" in="SourceGraphic" in2="BackgroundImageFix" result="shape"/>
<feGaussianBlur stdDeviation="100" result="effect1_foregroundBlur"/>
</filter>
<filter id="filter4_f" x="-510.475" y="-647.953" width="1071.36" height="940.411" filterUnits="userSpaceOnUse" color-interpolation-filters="sRGB">
<feFlood flood-opacity="0" result="BackgroundImageFix"/>
<feBlend mode="normal" in="SourceGraphic" in2="BackgroundImageFix" result="shape"/>
<feGaussianBlur stdDeviation="100" result="effect1_foregroundBlur"/>
</filter>
<linearGradient id="paint0_linear" x1="720" y1="510" x2="720" y2="1032" gradientUnits="userSpaceOnUse">
<stop stop-opacity="0"/>
<stop offset="0.9375" stop-color="#1E1E1E"/>
</linearGradient>
<clipPath id="clip0">
<rect width="1440" height="900" fill="white" transform="translate(1434 564) rotate(180)"/>
</clipPath>
</defs>
</svg>
