<svg width="17" height="13" viewBox="0 0 17 13" fill="none" xmlns="http://www.w3.org/2000/svg">
<path d="M16.1487 1.50773C15.5533 1.77577 14.9248 1.9433 14.2631 2.04381C14.9248 1.64175 15.454 1.00515 15.6856 0.234536C15.0571 0.603093 14.3624 0.871134 13.6015 1.03866C13.0061 0.402062 12.146 0 11.2197 0C9.43337 0 7.97782 1.47423 7.97782 3.28351C7.97782 3.55155 8.0109 3.78608 8.07706 4.02062C5.39752 3.8866 2.98263 2.5799 1.36168 0.569588C1.09704 1.07217 0.931633 1.60825 0.931633 2.21134C0.931633 3.35052 1.494 4.35567 2.38718 4.95876C1.85789 4.92526 1.36168 4.79124 0.898552 4.5567V4.59021C0.898552 6.19845 2.0233 7.53866 3.51193 7.84021C3.24728 7.90722 2.94955 7.94072 2.65183 7.94072C2.45334 7.94072 2.22178 7.90722 2.0233 7.87371C2.45334 9.18041 3.64425 10.1521 5.06672 10.1521C3.94197 11.0232 2.55259 11.5593 1.03088 11.5593C0.76623 11.5593 0.501584 11.5593 0.27002 11.5258C1.72557 12.4639 3.41268 13 5.2652 13C11.2528 13 14.5278 7.97423 14.5278 3.61856C14.5278 3.48454 14.5278 3.31701 14.5278 3.18299C15.1563 2.74742 15.7187 2.17783 16.1487 1.50773Z" fill="#21C6DD"/>
</svg>
