<svg width="50" height="52" viewBox="0 0 50 52" fill="none" xmlns="http://www.w3.org/2000/svg">
<path d="M10.75 14.8833L5.69125 9.76L9.04 6.3525L14.075 11.5L10.75 14.8833ZM27.375 0.625V7.875H22.625V0.625H27.375ZM44.3087 9.76L39.25 14.8833L35.925 11.5L40.96 6.3525L44.3087 9.76ZM7.1875 23.5833V28.4167H0.0625V23.5833H7.1875ZM42.8125 23.5833H49.9375V28.4167H42.8125V23.5833ZM10.75 46.5417H39.25C40.5098 46.5417 41.718 47.0509 42.6088 47.9573C43.4996 48.8637 44 50.0931 44 51.375H6C6 50.0931 6.50044 48.8637 7.39124 47.9573C8.28204 47.0509 9.49022 46.5417 10.75 46.5417ZM25 10.2917C28.7793 10.2917 32.4039 11.8193 35.0763 14.5386C37.7487 17.2579 39.25 20.946 39.25 24.7917V44.125H10.75V24.7917C10.75 20.946 12.2513 17.2579 14.9237 14.5386C17.5961 11.8193 21.2207 10.2917 25 10.2917Z" fill="white"/>
</svg>
