<svg width="50" height="50" viewBox="0 0 50 50" fill="none" xmlns="http://www.w3.org/2000/svg">
<path d="M25 22.0749C25.7758 22.0749 26.5198 22.3831 27.0684 22.9316C27.6169 23.4802 27.9251 24.2242 27.9251 25C27.9251 25.7758 27.6169 26.5198 27.0684 27.0684C26.5198 27.6169 25.7758 27.9251 25 27.9251C24.2242 27.9251 23.4802 27.6169 22.9316 27.0684C22.3831 26.5198 22.0749 25.7758 22.0749 25C22.0749 24.2242 22.3831 23.4802 22.9316 22.9316C23.4802 22.3831 24.2242 22.0749 25 22.0749ZM2.24276 2.24276C6.42565 -1.94012 15.4934 -0.0680594 25 6.16239C34.5066 -0.0680594 43.5743 -1.94012 47.7572 2.24276C51.9401 6.42565 50.0681 15.4934 43.8376 25C50.0681 34.5066 51.9401 43.5743 47.7572 47.7572C43.5743 51.9401 34.5066 50.0681 25 43.8376C15.4934 50.0681 6.42565 51.9401 2.24276 47.7572C-1.94012 43.5743 -0.0680594 34.5066 6.16239 25C-0.0680594 15.4934 -1.94012 6.42565 2.24276 2.24276ZM35.3548 14.6452C37.1391 16.4587 38.7772 18.3015 40.2982 20.1443C44.3349 13.9139 45.7974 8.56097 43.6036 6.3964C41.439 4.20258 36.0861 5.66513 29.8557 9.70176C31.6985 11.2228 33.5413 12.8609 35.3548 14.6452ZM14.6452 35.3548C12.8609 33.5413 11.2228 31.6985 9.70176 29.8557C5.66513 36.0861 4.20258 41.439 6.3964 43.6036C8.56097 45.7974 13.9139 44.3349 20.1443 40.2982C18.3015 38.7772 16.4587 37.1391 14.6452 35.3548ZM6.3964 6.3964C4.20258 8.56097 5.66513 13.9139 9.70176 20.1443C11.2228 18.3015 12.8609 16.4587 14.6452 14.6452C16.4587 12.8609 18.3015 11.2228 20.1443 9.70176C13.9139 5.66513 8.56097 4.20258 6.3964 6.3964ZM18.7988 31.2012C20.8464 33.2488 22.9524 35.1208 25 36.7881C27.0476 35.1208 29.1536 33.2488 31.2012 31.2012C33.2488 29.1536 35.1208 27.0476 36.7881 25C35.1208 22.9524 33.2488 20.8464 31.2012 18.7988C29.1536 16.7512 27.0476 14.8792 25 13.2119C22.9524 14.8792 20.8464 16.7512 18.7988 18.7988C16.7512 20.8464 14.8792 22.9524 13.2119 25C14.8792 27.0476 16.7512 29.1536 18.7988 31.2012ZM43.6036 43.6036C45.7974 41.439 44.3349 36.0861 40.2982 29.8557C38.7772 31.6985 37.1391 33.5413 35.3548 35.3548C33.5413 37.1391 31.6985 38.7772 29.8557 40.2982C36.0861 44.3349 41.439 45.7974 43.6036 43.6036Z" fill="white"/>
</svg>
