<svg width="54" height="44" viewBox="0 0 54 44" fill="none" xmlns="http://www.w3.org/2000/svg">
<path d="M43.8636 22.0001H39.0455V29.2273H31.8182V34.0455H43.8636V22.0001ZM14.9545 14.7728H22.1818V9.9546H10.1364V22.0001H14.9545V14.7728ZM48.6818 0.318237H5.31818C4.04032 0.318237 2.8148 0.825865 1.91121 1.72945C1.00763 2.63303 0.5 3.85856 0.5 5.13642V38.8637C0.5 40.1415 1.00763 41.3671 1.91121 42.2707C2.8148 43.1742 4.04032 43.6819 5.31818 43.6819H48.6818C49.9597 43.6819 51.1852 43.1742 52.0888 42.2707C52.9924 41.3671 53.5 40.1415 53.5 38.8637V5.13642C53.5 3.85856 52.9924 2.63303 52.0888 1.72945C51.1852 0.825865 49.9597 0.318237 48.6818 0.318237ZM48.6818 38.8637H5.31818V5.13642H48.6818V38.8637Z" fill="white"/>
</svg>
