<svg width="25" height="25" viewBox="0 0 25 25" fill="none" xmlns="http://www.w3.org/2000/svg">
<path d="M24.7034 9.16781C24.6269 8.94257 24.4862 8.74465 24.2985 8.59849C24.1108 8.45232 23.8844 8.36432 23.6473 8.34535L16.7111 7.7942L13.7096 1.14998C13.614 0.935983 13.4585 0.754224 13.2619 0.62664C13.0653 0.499055 12.836 0.431098 12.6016 0.430969C12.3672 0.430841 12.1378 0.498546 11.9411 0.625915C11.7443 0.753284 11.5886 0.934872 11.4928 1.14876L8.49131 7.7942L1.55509 8.34535C1.32205 8.36381 1.09925 8.44902 0.913366 8.59079C0.72748 8.73255 0.586373 8.92487 0.506925 9.14473C0.427476 9.36459 0.413052 9.60269 0.465378 9.83054C0.517703 10.0584 0.634562 10.2663 0.801975 10.4295L5.92779 15.4263L4.11496 23.2763C4.05991 23.5139 4.07755 23.7626 4.16559 23.99C4.25364 24.2175 4.40801 24.4132 4.60868 24.5519C4.80936 24.6905 5.04707 24.7656 5.29097 24.7675C5.53487 24.7694 5.77369 24.6979 5.97646 24.5623L12.6012 20.1458L19.226 24.5623C19.4332 24.6999 19.6776 24.7707 19.9263 24.7653C20.175 24.7598 20.4161 24.6783 20.6171 24.5318C20.8181 24.3852 20.9694 24.1806 21.0507 23.9455C21.1319 23.7104 21.1393 23.4561 21.0716 23.2167L18.8464 15.43L24.3652 10.4636C24.7265 10.1375 24.8591 9.62893 24.7034 9.16781Z" fill="#F3CD03"/>
</svg>
