<svg width="25" height="25" viewBox="0 0 25 25" fill="none" xmlns="http://www.w3.org/2000/svg">
<path d="M5.7282 15.4264L3.91537 23.2763C3.85923 23.514 3.87609 23.7631 3.96372 23.9911C4.05136 24.2191 4.20572 24.4153 4.40662 24.5542C4.60753 24.6931 4.84565 24.7682 5.08988 24.7696C5.33412 24.7711 5.57311 24.6988 5.77565 24.5624L12.4004 20.1459L19.0252 24.5624C19.2324 24.7 19.4768 24.7708 19.7255 24.7653C19.9742 24.7599 20.2153 24.6784 20.4163 24.5318C20.6173 24.3853 20.7686 24.1807 20.8499 23.9456C20.9311 23.7105 20.9384 23.4561 20.8708 23.2167L18.6456 15.4301L24.1644 10.4636C24.3411 10.3045 24.4673 10.097 24.5274 9.86686C24.5875 9.63673 24.5788 9.39403 24.5025 9.16878C24.4261 8.94352 24.2854 8.7456 24.0977 8.59948C23.91 8.45336 23.6836 8.36545 23.4465 8.34662L16.5103 7.79426L13.5088 1.15004C13.4131 0.936098 13.2575 0.754425 13.0608 0.626949C12.8641 0.499472 12.6348 0.431641 12.4004 0.431641C12.166 0.431641 11.9367 0.499472 11.74 0.626949C11.5433 0.754425 11.3877 0.936098 11.292 1.15004L8.2905 7.79426L1.35429 8.34541C1.12124 8.36387 0.898447 8.44908 0.712561 8.59085C0.526675 8.73261 0.385567 8.92493 0.306119 9.14479C0.226671 9.36466 0.212247 9.60275 0.264572 9.8306C0.316897 10.0584 0.433756 10.2664 0.601169 10.4296L5.7282 15.4264V15.4264ZM9.19935 10.1631C9.41652 10.146 9.62509 10.0708 9.80319 9.94534C9.98129 9.8199 10.1224 9.64886 10.2116 9.45014L12.4004 4.60659L14.5892 9.45014C14.6784 9.64886 14.8195 9.8199 14.9976 9.94534C15.1757 10.0708 15.3843 10.146 15.6015 10.1631L20.4341 10.5464L16.4543 14.1282C16.1088 14.4397 15.9713 14.9191 16.0979 15.3668L17.6223 20.7019L13.0769 17.6712C12.8774 17.5373 12.6425 17.4657 12.4022 17.4657C12.1619 17.4657 11.9271 17.5373 11.7276 17.6712L6.97772 20.8381L8.25522 15.3072C8.30206 15.1038 8.29577 14.8917 8.23696 14.6914C8.17815 14.4911 8.0688 14.3093 7.91942 14.1635L4.22319 10.5597L9.19935 10.1631V10.1631Z" fill="#F3CD03"/>
</svg>
